<mxfile host="app.diagrams.net" agent="Mozilla/5.0 (Windows NT 10.0; Win64; x64) AppleWebKit/537.36 (KHTML, like Gecko) Chrome/136.0.0.0 Safari/537.36" version="27.0.5">
  <diagram name="Σελίδα-1" id="nQr8qfGo8-mAm3RJc1jo">
    <mxGraphModel dx="1611" dy="1102" grid="1" gridSize="10" guides="1" tooltips="1" connect="1" arrows="1" fold="1" page="1" pageScale="1" pageWidth="827" pageHeight="1169" math="0" shadow="0" adaptiveColors="none">
      <root>
        <mxCell id="0" />
        <mxCell id="1" parent="0" />
        <mxCell id="SmGr0h7oMXAJf0F9QQOU-1" value="" style="html=1;points=[[0,0,0,0,5],[0,1,0,0,-5],[1,0,0,0,5],[1,1,0,0,-5]];perimeter=orthogonalPerimeter;outlineConnect=0;targetShapes=umlLifeline;portConstraint=eastwest;newEdgeStyle={&quot;curved&quot;:0,&quot;rounded&quot;:0};" vertex="1" parent="1">
          <mxGeometry x="115" y="160" width="10" height="480" as="geometry" />
        </mxCell>
        <mxCell id="SmGr0h7oMXAJf0F9QQOU-2" value="24 hours ban" style="html=1;verticalAlign=bottom;endArrow=open;dashed=1;endSize=8;curved=0;rounded=0;" edge="1" parent="1" source="SmGr0h7oMXAJf0F9QQOU-1" target="SmGr0h7oMXAJf0F9QQOU-1">
          <mxGeometry x="0.1" y="-40" relative="1" as="geometry">
            <mxPoint x="110" y="420" as="sourcePoint" />
            <mxPoint x="30" y="420" as="targetPoint" />
            <Array as="points">
              <mxPoint x="70" y="420" />
              <mxPoint x="70" y="430" />
            </Array>
            <mxPoint x="-40" y="-40" as="offset" />
          </mxGeometry>
        </mxCell>
        <mxCell id="SmGr0h7oMXAJf0F9QQOU-3" value="[User want to be hidden]" style="text;html=1;align=center;verticalAlign=middle;resizable=0;points=[];autosize=1;strokeColor=none;fillColor=none;" vertex="1" parent="1">
          <mxGeometry x="-60" y="230" width="150" height="30" as="geometry" />
        </mxCell>
        <mxCell id="SmGr0h7oMXAJf0F9QQOU-4" value="" style="html=1;points=[[0,0,0,0,5],[0,1,0,0,-5],[1,0,0,0,5],[1,1,0,0,-5]];perimeter=orthogonalPerimeter;outlineConnect=0;targetShapes=umlLifeline;portConstraint=eastwest;newEdgeStyle={&quot;curved&quot;:0,&quot;rounded&quot;:0};" vertex="1" parent="1">
          <mxGeometry x="285" y="160" width="10" height="150" as="geometry" />
        </mxCell>
        <mxCell id="SmGr0h7oMXAJf0F9QQOU-5" value="write answer" style="html=1;verticalAlign=bottom;endArrow=block;curved=0;rounded=0;entryX=-0.2;entryY=0.54;entryDx=0;entryDy=0;entryPerimeter=0;" edge="1" parent="1">
          <mxGeometry width="80" relative="1" as="geometry">
            <mxPoint x="127" y="210.00000000000009" as="sourcePoint" />
            <mxPoint x="285" y="210.00000000000009" as="targetPoint" />
          </mxGeometry>
        </mxCell>
        <mxCell id="SmGr0h7oMXAJf0F9QQOU-6" value="display answer form" style="html=1;verticalAlign=bottom;endArrow=open;dashed=1;endSize=8;curved=0;rounded=0;entryX=0.9;entryY=0.035;entryDx=0;entryDy=0;entryPerimeter=0;" edge="1" parent="1">
          <mxGeometry relative="1" as="geometry">
            <mxPoint x="285" y="180.00000000000006" as="sourcePoint" />
            <mxPoint x="124" y="180.00000000000006" as="targetPoint" />
          </mxGeometry>
        </mxCell>
        <mxCell id="SmGr0h7oMXAJf0F9QQOU-7" value="choose no name answer" style="html=1;verticalAlign=bottom;endArrow=block;curved=0;rounded=0;exitX=1.2;exitY=0.097;exitDx=0;exitDy=0;exitPerimeter=0;" edge="1" parent="1">
          <mxGeometry width="80" relative="1" as="geometry">
            <mxPoint x="127" y="239.49999999999991" as="sourcePoint" />
            <mxPoint x="285" y="239.49999999999991" as="targetPoint" />
          </mxGeometry>
        </mxCell>
        <mxCell id="SmGr0h7oMXAJf0F9QQOU-8" value="alt" style="shape=umlFrame;whiteSpace=wrap;html=1;pointerEvents=0;" vertex="1" parent="1">
          <mxGeometry x="-120" y="220" width="430" height="40" as="geometry" />
        </mxCell>
        <mxCell id="SmGr0h7oMXAJf0F9QQOU-9" value="display filled answer form" style="html=1;verticalAlign=bottom;endArrow=open;dashed=1;endSize=8;curved=0;rounded=0;" edge="1" parent="1">
          <mxGeometry x="0.0062" relative="1" as="geometry">
            <mxPoint x="285" y="280" as="sourcePoint" />
            <mxPoint x="124" y="280" as="targetPoint" />
            <mxPoint as="offset" />
          </mxGeometry>
        </mxCell>
        <mxCell id="SmGr0h7oMXAJf0F9QQOU-10" value="loop" style="shape=umlFrame;whiteSpace=wrap;html=1;pointerEvents=0;" vertex="1" parent="1">
          <mxGeometry x="-260" y="190" width="720" height="360" as="geometry" />
        </mxCell>
        <mxCell id="SmGr0h7oMXAJf0F9QQOU-11" value="[If user type answer]" style="text;html=1;align=center;verticalAlign=middle;resizable=0;points=[];autosize=1;strokeColor=none;fillColor=none;" vertex="1" parent="1">
          <mxGeometry x="-260" y="220" width="130" height="30" as="geometry" />
        </mxCell>
        <mxCell id="SmGr0h7oMXAJf0F9QQOU-12" value="" style="html=1;points=[[0,0,0,0,5],[0,1,0,0,-5],[1,0,0,0,5],[1,1,0,0,-5]];perimeter=orthogonalPerimeter;outlineConnect=0;targetShapes=umlLifeline;portConstraint=eastwest;newEdgeStyle={&quot;curved&quot;:0,&quot;rounded&quot;:0};" vertex="1" parent="1">
          <mxGeometry x="409" y="310" width="10" height="20" as="geometry" />
        </mxCell>
        <mxCell id="SmGr0h7oMXAJf0F9QQOU-13" value="" style="html=1;points=[[0,0,0,0,5],[0,1,0,0,-5],[1,0,0,0,5],[1,1,0,0,-5]];perimeter=orthogonalPerimeter;outlineConnect=0;targetShapes=umlLifeline;portConstraint=eastwest;newEdgeStyle={&quot;curved&quot;:0,&quot;rounded&quot;:0};" vertex="1" parent="1">
          <mxGeometry x="409" y="430" width="10" height="30" as="geometry" />
        </mxCell>
        <mxCell id="SmGr0h7oMXAJf0F9QQOU-14" value="redirect()" style="html=1;verticalAlign=bottom;endArrow=block;curved=0;rounded=0;" edge="1" parent="1">
          <mxGeometry width="80" relative="1" as="geometry">
            <mxPoint x="295" y="310" as="sourcePoint" />
            <mxPoint x="410" y="310" as="targetPoint" />
          </mxGeometry>
        </mxCell>
        <mxCell id="SmGr0h7oMXAJf0F9QQOU-15" value="display()" style="html=1;verticalAlign=bottom;endArrow=open;dashed=1;endSize=8;curved=0;rounded=0;exitX=0;exitY=1;exitDx=0;exitDy=-5;exitPerimeter=0;" edge="1" parent="1" source="SmGr0h7oMXAJf0F9QQOU-12" target="SmGr0h7oMXAJf0F9QQOU-1">
          <mxGeometry x="0.2606" relative="1" as="geometry">
            <mxPoint x="220" y="320" as="sourcePoint" />
            <mxPoint x="140" y="320" as="targetPoint" />
            <mxPoint as="offset" />
          </mxGeometry>
        </mxCell>
        <mxCell id="SmGr0h7oMXAJf0F9QQOU-16" value="alt" style="shape=umlFrame;whiteSpace=wrap;html=1;pointerEvents=0;" vertex="1" parent="1">
          <mxGeometry x="-120" y="340" width="570" height="130" as="geometry" />
        </mxCell>
        <mxCell id="SmGr0h7oMXAJf0F9QQOU-17" value="[User use bad phrase]" style="text;html=1;align=center;verticalAlign=middle;resizable=0;points=[];autosize=1;strokeColor=none;fillColor=none;" vertex="1" parent="1">
          <mxGeometry x="-60" y="370" width="140" height="30" as="geometry" />
        </mxCell>
        <mxCell id="SmGr0h7oMXAJf0F9QQOU-18" value="" style="html=1;points=[[0,0,0,0,5],[0,1,0,0,-5],[1,0,0,0,5],[1,1,0,0,-5]];perimeter=orthogonalPerimeter;outlineConnect=0;targetShapes=umlLifeline;portConstraint=eastwest;newEdgeStyle={&quot;curved&quot;:0,&quot;rounded&quot;:0};" vertex="1" parent="1">
          <mxGeometry x="285" y="360" width="10" height="60" as="geometry" />
        </mxCell>
        <mxCell id="SmGr0h7oMXAJf0F9QQOU-19" value="write answer" style="html=1;verticalAlign=bottom;endArrow=block;curved=0;rounded=0;entryX=-0.2;entryY=0.54;entryDx=0;entryDy=0;entryPerimeter=0;" edge="1" parent="1">
          <mxGeometry width="80" relative="1" as="geometry">
            <mxPoint x="127" y="360.0000000000001" as="sourcePoint" />
            <mxPoint x="285" y="360.0000000000001" as="targetPoint" />
          </mxGeometry>
        </mxCell>
        <mxCell id="SmGr0h7oMXAJf0F9QQOU-20" value="display filled answer form" style="html=1;verticalAlign=bottom;endArrow=open;dashed=1;endSize=8;curved=0;rounded=0;entryX=0.9;entryY=0.167;entryDx=0;entryDy=0;entryPerimeter=0;" edge="1" parent="1">
          <mxGeometry relative="1" as="geometry">
            <mxPoint x="285" y="377" as="sourcePoint" />
            <mxPoint x="124" y="377" as="targetPoint" />
          </mxGeometry>
        </mxCell>
        <mxCell id="SmGr0h7oMXAJf0F9QQOU-21" value="click(&quot;Υποβολή&quot;)" style="html=1;verticalAlign=bottom;endArrow=block;curved=0;rounded=0;" edge="1" parent="1">
          <mxGeometry width="80" relative="1" as="geometry">
            <mxPoint x="126" y="300" as="sourcePoint" />
            <mxPoint x="285" y="300" as="targetPoint" />
          </mxGeometry>
        </mxCell>
        <mxCell id="SmGr0h7oMXAJf0F9QQOU-22" value="click(&quot;Υποβολή&quot;)" style="html=1;verticalAlign=bottom;endArrow=block;curved=0;rounded=0;" edge="1" parent="1">
          <mxGeometry width="80" relative="1" as="geometry">
            <mxPoint x="126" y="394" as="sourcePoint" />
            <mxPoint x="285" y="394" as="targetPoint" />
          </mxGeometry>
        </mxCell>
        <mxCell id="SmGr0h7oMXAJf0F9QQOU-23" value="display message" style="html=1;verticalAlign=bottom;endArrow=open;dashed=1;endSize=8;curved=0;rounded=0;exitX=0;exitY=1;exitDx=0;exitDy=-5;exitPerimeter=0;" edge="1" parent="1" source="SmGr0h7oMXAJf0F9QQOU-18" target="SmGr0h7oMXAJf0F9QQOU-1">
          <mxGeometry relative="1" as="geometry">
            <mxPoint x="210" y="420" as="sourcePoint" />
            <mxPoint x="130" y="420" as="targetPoint" />
          </mxGeometry>
        </mxCell>
        <mxCell id="SmGr0h7oMXAJf0F9QQOU-24" value="" style="endArrow=none;dashed=1;html=1;rounded=0;exitX=0.013;exitY=0.033;exitDx=0;exitDy=0;exitPerimeter=0;entryX=1.001;entryY=0.645;entryDx=0;entryDy=0;entryPerimeter=0;" edge="1" parent="1" source="SmGr0h7oMXAJf0F9QQOU-25">
          <mxGeometry width="50" height="50" relative="1" as="geometry">
            <mxPoint x="-220" y="510" as="sourcePoint" />
            <mxPoint x="430.69000000000005" y="481.9000000000001" as="targetPoint" />
          </mxGeometry>
        </mxCell>
        <mxCell id="SmGr0h7oMXAJf0F9QQOU-25" value="[If user dont type answer]" style="text;html=1;align=center;verticalAlign=middle;resizable=0;points=[];autosize=1;strokeColor=none;fillColor=none;" vertex="1" parent="1">
          <mxGeometry x="-260" y="480" width="160" height="30" as="geometry" />
        </mxCell>
        <mxCell id="SmGr0h7oMXAJf0F9QQOU-26" value="display(&quot;Η απάντηση δεν&lt;div&gt;μπορεί να είναι κενή&quot;)&lt;/div&gt;" style="html=1;verticalAlign=bottom;endArrow=open;dashed=1;endSize=8;curved=0;rounded=0;exitX=0.5;exitY=1;exitDx=0;exitDy=0;exitPerimeter=0;" edge="1" parent="1" source="SmGr0h7oMXAJf0F9QQOU-28">
          <mxGeometry relative="1" as="geometry">
            <mxPoint x="230" y="530" as="sourcePoint" />
            <mxPoint x="125" y="540" as="targetPoint" />
          </mxGeometry>
        </mxCell>
        <mxCell id="SmGr0h7oMXAJf0F9QQOU-27" value="click(&quot;Υποβολή&quot;)" style="html=1;verticalAlign=bottom;endArrow=block;curved=0;rounded=0;" edge="1" parent="1">
          <mxGeometry width="80" relative="1" as="geometry">
            <mxPoint x="126" y="504.5" as="sourcePoint" />
            <mxPoint x="285" y="504.5" as="targetPoint" />
          </mxGeometry>
        </mxCell>
        <mxCell id="SmGr0h7oMXAJf0F9QQOU-28" value="" style="html=1;points=[[0,0,0,0,5],[0,1,0,0,-5],[1,0,0,0,5],[1,1,0,0,-5]];perimeter=orthogonalPerimeter;outlineConnect=0;targetShapes=umlLifeline;portConstraint=eastwest;newEdgeStyle={&quot;curved&quot;:0,&quot;rounded&quot;:0};" vertex="1" parent="1">
          <mxGeometry x="285" y="490" width="10" height="50" as="geometry" />
        </mxCell>
        <mxCell id="SmGr0h7oMXAJf0F9QQOU-29" value="redirect()" style="html=1;verticalAlign=bottom;endArrow=block;curved=0;rounded=0;exitX=1.1;exitY=0.581;exitDx=0;exitDy=0;exitPerimeter=0;" edge="1" parent="1" source="SmGr0h7oMXAJf0F9QQOU-1" target="SmGr0h7oMXAJf0F9QQOU-13">
          <mxGeometry x="-0.3404" width="80" relative="1" as="geometry">
            <mxPoint x="130" y="440" as="sourcePoint" />
            <mxPoint x="210" y="440" as="targetPoint" />
            <mxPoint as="offset" />
          </mxGeometry>
        </mxCell>
        <mxCell id="SmGr0h7oMXAJf0F9QQOU-30" value="display()" style="html=1;verticalAlign=bottom;endArrow=open;dashed=1;endSize=8;curved=0;rounded=0;exitX=0;exitY=1;exitDx=0;exitDy=-5;exitPerimeter=0;" edge="1" parent="1" source="SmGr0h7oMXAJf0F9QQOU-13" target="SmGr0h7oMXAJf0F9QQOU-1">
          <mxGeometry relative="1" as="geometry">
            <mxPoint x="240" y="440" as="sourcePoint" />
            <mxPoint x="160" y="440" as="targetPoint" />
          </mxGeometry>
        </mxCell>
        <mxCell id="SmGr0h7oMXAJf0F9QQOU-31" value="" style="shape=umlLifeline;perimeter=lifelinePerimeter;whiteSpace=wrap;html=1;container=1;dropTarget=0;collapsible=0;recursiveResize=0;outlineConnect=0;portConstraint=eastwest;newEdgeStyle={&quot;curved&quot;:0,&quot;rounded&quot;:0};participant=umlActor;" vertex="1" parent="1">
          <mxGeometry x="110" y="120" width="20" height="580" as="geometry" />
        </mxCell>
        <mxCell id="SmGr0h7oMXAJf0F9QQOU-32" value=":Answer" style="shape=umlLifeline;perimeter=lifelinePerimeter;whiteSpace=wrap;html=1;container=1;dropTarget=0;collapsible=0;recursiveResize=0;outlineConnect=0;portConstraint=eastwest;newEdgeStyle={&quot;curved&quot;:0,&quot;rounded&quot;:0};" vertex="1" parent="1">
          <mxGeometry x="240" y="120" width="100" height="590" as="geometry" />
        </mxCell>
        <mxCell id="SmGr0h7oMXAJf0F9QQOU-33" value=":ViewSubject" style="shape=umlLifeline;perimeter=lifelinePerimeter;whiteSpace=wrap;html=1;container=1;dropTarget=0;collapsible=0;recursiveResize=0;outlineConnect=0;portConstraint=eastwest;newEdgeStyle={&quot;curved&quot;:0,&quot;rounded&quot;:0};" vertex="1" parent="1">
          <mxGeometry x="364" y="120" width="100" height="600" as="geometry" />
        </mxCell>
        <mxCell id="SmGr0h7oMXAJf0F9QQOU-34" value="alt" style="shape=umlFrame;whiteSpace=wrap;html=1;pointerEvents=0;" vertex="1" parent="1">
          <mxGeometry x="-120" y="560" width="580" height="90" as="geometry" />
        </mxCell>
        <mxCell id="SmGr0h7oMXAJf0F9QQOU-35" value="[User cancel answer]" style="text;html=1;align=center;verticalAlign=middle;resizable=0;points=[];autosize=1;strokeColor=none;fillColor=none;" vertex="1" parent="1">
          <mxGeometry x="-55" y="600" width="140" height="30" as="geometry" />
        </mxCell>
        <mxCell id="SmGr0h7oMXAJf0F9QQOU-41" value="" style="html=1;points=[[0,0,0,0,5],[0,1,0,0,-5],[1,0,0,0,5],[1,1,0,0,-5]];perimeter=orthogonalPerimeter;outlineConnect=0;targetShapes=umlLifeline;portConstraint=eastwest;newEdgeStyle={&quot;curved&quot;:0,&quot;rounded&quot;:0};" vertex="1" parent="1">
          <mxGeometry x="409" y="600" width="10" height="30" as="geometry" />
        </mxCell>
        <mxCell id="SmGr0h7oMXAJf0F9QQOU-42" value="" style="html=1;points=[[0,0,0,0,5],[0,1,0,0,-5],[1,0,0,0,5],[1,1,0,0,-5]];perimeter=orthogonalPerimeter;outlineConnect=0;targetShapes=umlLifeline;portConstraint=eastwest;newEdgeStyle={&quot;curved&quot;:0,&quot;rounded&quot;:0};" vertex="1" parent="1">
          <mxGeometry x="285" y="580" width="10" height="30" as="geometry" />
        </mxCell>
        <mxCell id="SmGr0h7oMXAJf0F9QQOU-43" value="click(ακύρωση)" style="html=1;verticalAlign=bottom;endArrow=block;curved=0;rounded=0;" edge="1" parent="1">
          <mxGeometry width="80" relative="1" as="geometry">
            <mxPoint x="126" y="584" as="sourcePoint" />
            <mxPoint x="285" y="584" as="targetPoint" />
          </mxGeometry>
        </mxCell>
        <mxCell id="SmGr0h7oMXAJf0F9QQOU-44" value="redirect()" style="html=1;verticalAlign=bottom;endArrow=block;curved=0;rounded=0;exitX=1;exitY=1;exitDx=0;exitDy=-5;exitPerimeter=0;" edge="1" parent="1" target="SmGr0h7oMXAJf0F9QQOU-41" source="SmGr0h7oMXAJf0F9QQOU-42">
          <mxGeometry x="-0.0351" width="80" relative="1" as="geometry">
            <mxPoint x="125" y="625" as="sourcePoint" />
            <mxPoint x="210" y="630" as="targetPoint" />
            <mxPoint as="offset" />
          </mxGeometry>
        </mxCell>
        <mxCell id="SmGr0h7oMXAJf0F9QQOU-45" value="display()" style="html=1;verticalAlign=bottom;endArrow=open;dashed=1;endSize=8;curved=0;rounded=0;exitX=0;exitY=1;exitDx=0;exitDy=-5;exitPerimeter=0;" edge="1" parent="1" source="SmGr0h7oMXAJf0F9QQOU-41" target="SmGr0h7oMXAJf0F9QQOU-1">
          <mxGeometry x="0.331" relative="1" as="geometry">
            <mxPoint x="240" y="630" as="sourcePoint" />
            <mxPoint x="125" y="645" as="targetPoint" />
            <mxPoint as="offset" />
          </mxGeometry>
        </mxCell>
      </root>
    </mxGraphModel>
  </diagram>
</mxfile>
